<svg viewBox="0 0 360 720" xmlns="http://www.w3.org/2000/svg" font-family="Helvetica, Arial, sans-serif"><rect x="0" y="0" width="360" height="720" rx="18" fill="#ffffff" stroke="#333333" stroke-width="3"/><text x="180.0" y="120" font-size="22" font-weight="bold" fill="#222222" text-anchor="middle">SaborBrasileiro</text><rect x="140.0" y="150" width="80" height="80" rx="6" fill="#f2f2f2" stroke="#9a9a9a" stroke-width="1.5"/><circle cx="170.4" cy="186.0" r="9.6" fill="#d8d8d8"/><path d="M 152.0 214.0 L 172.0 190.0 L 188.0 206.0 L 208.0 178.0 L 208.0 218.0 L 152.0 218.0 Z" fill="#d8d8d8"/><text x="30" y="260" font-size="11" font-weight="normal" fill="#777777" text-anchor="start">E-mail</text><rect x="30" y="268" width="300" height="40" rx="8" fill="#ffffff" stroke="#9a9a9a" stroke-width="1.5"/><text x="40" y="293" font-size="11" font-weight="normal" fill="#777777" text-anchor="start">ana.souza@email.com</text><text x="30" y="330" font-size="11" font-weight="normal" fill="#777777" text-anchor="start">Senha</text><rect x="30" y="338" width="300" height="40" rx="8" fill="#ffffff" stroke="#9a9a9a" stroke-width="1.5"/><text x="40" y="363" font-size="13" font-weight="normal" fill="#777777" text-anchor="start">••••••••</text><text x="330" y="390" font-size="10" font-weight="normal" fill="#4a4a4a" text-anchor="end">Esqueci minha senha</text><rect x="30" y="420" width="300" height="46" rx="23.0" fill="#4a4a4a" stroke="#4a4a4a" stroke-width="1.5"/><text x="180.0" y="448.0" font-size="13" font-weight="bold" fill="#ffffff" text-anchor="middle">Entrar</text><line x1="30" y1="490" x2="160.0" y2="490" stroke="#9a9a9a" stroke-width="1"/><text x="180.0" y="494" font-size="10" font-weight="normal" fill="#777777" text-anchor="middle">ou</text><line x1="200.0" y1="490" x2="330" y2="490" stroke="#9a9a9a" stroke-width="1"/><rect x="30" y="520" width="300" height="46" rx="23.0" fill="#ffffff" stroke="#4a4a4a" stroke-width="1.5"/><text x="180.0" y="548.0" font-size="13" font-weight="bold" fill="#4a4a4a" text-anchor="middle">Criar conta</text></svg>